<mxfile host="Electron" agent="Mozilla/5.0 (Macintosh; Intel Mac OS X 10_15_7) AppleWebKit/537.36 (KHTML, like Gecko) draw.io/27.0.9 Chrome/134.0.6998.205 Electron/35.4.0 Safari/537.36" version="27.0.9" pages="5">
  <diagram name="main" id="m0zTKrYATkNEm8Ja8VeW">
    <mxGraphModel dx="1103" dy="732" grid="1" gridSize="10" guides="1" tooltips="1" connect="1" arrows="1" fold="1" page="1" pageScale="1" pageWidth="850" pageHeight="1100" math="0" shadow="0">
      <root>
        <mxCell id="0" />
        <mxCell id="1" parent="0" />
        <mxCell id="GZ_4_-aFKaLcyj-fTqnw-7" style="edgeStyle=orthogonalEdgeStyle;shape=connector;rounded=1;jumpStyle=arc;orthogonalLoop=1;jettySize=auto;html=1;exitX=1;exitY=0.5;exitDx=0;exitDy=0;exitPerimeter=0;entryX=0;entryY=0.5;entryDx=0;entryDy=0;entryPerimeter=0;labelBackgroundColor=default;strokeColor=#666666;strokeWidth=2;fontFamily=Helvetica;fontSize=11;fontColor=default;endArrow=classic;fillColor=#f5f5f5;opacity=90;" parent="1" source="GZ_4_-aFKaLcyj-fTqnw-12" target="aZxXlgppM9aiWmMxKNXG-2" edge="1">
          <mxGeometry relative="1" as="geometry" />
        </mxCell>
        <mxCell id="GZ_4_-aFKaLcyj-fTqnw-12" value="" style="rhombus;whiteSpace=wrap;html=1;rounded=1;fontStyle=1;glass=0;sketch=0;fontSize=12;points=[[0,0.5,0,0,0],[0.5,0,0,0,0],[0.5,1,0,0,0],[1,0.5,0,0,0]];shadow=1;fontFamily=Helvetica;fontColor=default;" parent="1" vertex="1">
          <mxGeometry x="40" y="100" width="40" height="40" as="geometry" />
        </mxCell>
        <mxCell id="GZ_4_-aFKaLcyj-fTqnw-25" value="✗" style="rhombus;whiteSpace=wrap;html=1;rounded=1;fillColor=#0050ef;fontColor=#ffffff;strokeColor=#001DBC;fontStyle=1;glass=0;sketch=0;fontSize=12;points=[[0,0.5,0,0,0],[0.5,0,0,0,0],[0.5,1,0,0,0],[1,0.5,0,0,0]];shadow=1;fontFamily=Helvetica;opacity=30;textOpacity=30;" parent="1" vertex="1">
          <mxGeometry x="1400" y="210" width="40" height="40" as="geometry" />
        </mxCell>
        <mxCell id="aZxXlgppM9aiWmMxKNXG-1" value="Read Text File" style="rounded=1;whiteSpace=wrap;html=1;sketch=0;container=1;recursiveResize=0;verticalAlign=top;arcSize=6;fontStyle=1;autosize=0;points=[];absoluteArcSize=1;shadow=0;strokeColor=#001DBC;fillColor=#D4E4EF;fontColor=#ffffff;fontFamily=Helvetica;fontSize=11;gradientColor=#0050EF;" parent="1" vertex="1">
          <mxGeometry x="180" y="80" width="130" height="110" as="geometry">
            <mxRectangle x="-98" y="-1230" width="99" height="26" as="alternateBounds" />
          </mxGeometry>
        </mxCell>
        <mxCell id="aZxXlgppM9aiWmMxKNXG-2" value="" style="rounded=1;whiteSpace=wrap;html=1;sketch=0;points=[[0,0.5,0,0,0],[1,0.5,0,0,0]];arcSize=50;fontFamily=Helvetica;fontSize=11;fontColor=default;" parent="aZxXlgppM9aiWmMxKNXG-1" vertex="1">
          <mxGeometry x="-20" y="27.5" width="39.25" height="25" as="geometry" />
        </mxCell>
        <mxCell id="aZxXlgppM9aiWmMxKNXG-4" value="✗" style="rounded=1;whiteSpace=wrap;html=1;sketch=0;points=[[0,0.5,0,0,0],[1,0.5,0,0,0]];fillColor=#1ba1e2;fontColor=#ffffff;strokeColor=#006EAF;arcSize=50;fontFamily=Helvetica;fontSize=11;textOpacity=30;opacity=30;" parent="aZxXlgppM9aiWmMxKNXG-1" vertex="1">
          <mxGeometry x="110" y="70" width="35.25" height="25" as="geometry" />
        </mxCell>
        <mxCell id="aZxXlgppM9aiWmMxKNXG-3" value="" style="rounded=1;whiteSpace=wrap;html=1;sketch=0;points=[[0,0.5,0,0,0],[1,0.5,0,0,0]];fillColor=#1ba1e2;fontColor=#ffffff;strokeColor=#006EAF;arcSize=50;fontFamily=Helvetica;fontSize=11;" parent="aZxXlgppM9aiWmMxKNXG-1" vertex="1">
          <mxGeometry x="110" y="27.5" width="35.25" height="25" as="geometry" />
        </mxCell>
        <mxCell id="caMlEeAOtgMtuNYItqB--1" style="edgeStyle=orthogonalEdgeStyle;rounded=1;orthogonalLoop=1;jettySize=auto;html=1;exitX=1;exitY=0.5;exitDx=0;exitDy=0;exitPerimeter=0;entryX=0;entryY=0.5;entryDx=0;entryDy=0;entryPerimeter=0;dashed=1;dashPattern=1 4;" parent="1" source="aZxXlgppM9aiWmMxKNXG-4" target="GZ_4_-aFKaLcyj-fTqnw-25" edge="1">
          <mxGeometry relative="1" as="geometry">
            <Array as="points">
              <mxPoint x="350" y="163" />
              <mxPoint x="350" y="230" />
            </Array>
          </mxGeometry>
        </mxCell>
        <mxCell id="caMlEeAOtgMtuNYItqB--7" style="edgeStyle=orthogonalEdgeStyle;rounded=1;orthogonalLoop=1;jettySize=auto;html=1;entryX=0;entryY=0.5;entryDx=0;entryDy=0;entryPerimeter=0;exitX=1;exitY=0.5;exitDx=0;exitDy=0;exitPerimeter=0;dashed=1;dashPattern=1 4;" parent="1" source="ZBTH2sTNNBvJXLbR3IgM-12" target="GZ_4_-aFKaLcyj-fTqnw-25" edge="1">
          <mxGeometry relative="1" as="geometry">
            <Array as="points">
              <mxPoint x="560" y="163" />
              <mxPoint x="560" y="230" />
            </Array>
            <mxPoint x="630" y="150" as="sourcePoint" />
          </mxGeometry>
        </mxCell>
        <mxCell id="2y3P-0cfO2r3NAotVrSD-1" value="Javascript" style="rhombus;whiteSpace=wrap;html=1;rounded=1;fillColor=#0050ef;fontColor=#ffffff;strokeColor=#001DBC;fontStyle=1;glass=0;sketch=0;fontSize=12;points=[[0,0.5,0,0,0],[0.5,0,0,0,0],[0.5,1,0,0,0],[1,0.5,0,0,0]];shadow=1;fontFamily=Helvetica;" parent="1" vertex="1">
          <mxGeometry x="1380" y="80" width="80" height="80" as="geometry" />
        </mxCell>
        <mxCell id="ZBTH2sTNNBvJXLbR3IgM-10" value="Unbq" style="rounded=1;whiteSpace=wrap;html=1;sketch=0;container=1;recursiveResize=0;verticalAlign=top;arcSize=6;fontStyle=1;autosize=0;points=[];absoluteArcSize=1;shadow=0;strokeColor=#001DBC;fillColor=#D4E4EF;fontColor=#ffffff;fontFamily=Helvetica;fontSize=11;gradientColor=#0050EF;" parent="1" vertex="1">
          <mxGeometry x="390" y="80" width="130" height="110" as="geometry">
            <mxRectangle x="-98" y="-1230" width="99" height="26" as="alternateBounds" />
          </mxGeometry>
        </mxCell>
        <mxCell id="ZBTH2sTNNBvJXLbR3IgM-11" value="" style="rounded=1;whiteSpace=wrap;html=1;sketch=0;points=[[0,0.5,0,0,0],[1,0.5,0,0,0]];arcSize=50;fontFamily=Helvetica;fontSize=11;fontColor=default;" parent="ZBTH2sTNNBvJXLbR3IgM-10" vertex="1">
          <mxGeometry x="-20" y="27.5" width="39.25" height="25" as="geometry" />
        </mxCell>
        <mxCell id="ZBTH2sTNNBvJXLbR3IgM-12" value="✗" style="rounded=1;whiteSpace=wrap;html=1;sketch=0;points=[[0,0.5,0,0,0],[1,0.5,0,0,0]];fillColor=#1ba1e2;fontColor=#ffffff;strokeColor=#006EAF;arcSize=50;fontFamily=Helvetica;fontSize=11;textOpacity=30;opacity=30;" parent="ZBTH2sTNNBvJXLbR3IgM-10" vertex="1">
          <mxGeometry x="110" y="70" width="35.25" height="25" as="geometry" />
        </mxCell>
        <mxCell id="ZBTH2sTNNBvJXLbR3IgM-13" value="" style="rounded=1;whiteSpace=wrap;html=1;sketch=0;points=[[0,0.5,0,0,0],[1,0.5,0,0,0]];fillColor=#1ba1e2;fontColor=#ffffff;strokeColor=#006EAF;arcSize=50;fontFamily=Helvetica;fontSize=11;" parent="ZBTH2sTNNBvJXLbR3IgM-10" vertex="1">
          <mxGeometry x="110" y="27.5" width="35.25" height="25" as="geometry" />
        </mxCell>
        <mxCell id="ZBTH2sTNNBvJXLbR3IgM-14" style="edgeStyle=orthogonalEdgeStyle;shape=connector;curved=0;rounded=1;orthogonalLoop=1;jettySize=auto;html=1;exitX=1;exitY=0.5;exitDx=0;exitDy=0;exitPerimeter=0;strokeColor=default;strokeWidth=2;align=center;verticalAlign=middle;fontFamily=Helvetica;fontSize=11;fontColor=default;labelBackgroundColor=default;endArrow=classic;" parent="1" source="aZxXlgppM9aiWmMxKNXG-3" target="ZBTH2sTNNBvJXLbR3IgM-11" edge="1">
          <mxGeometry relative="1" as="geometry" />
        </mxCell>
        <mxCell id="ZBTH2sTNNBvJXLbR3IgM-16" value="Unquote" style="rounded=1;whiteSpace=wrap;html=1;sketch=0;container=1;recursiveResize=0;verticalAlign=top;arcSize=6;fontStyle=1;autosize=0;points=[];absoluteArcSize=1;shadow=0;strokeColor=#001DBC;fillColor=#D4E4EF;fontColor=#ffffff;fontFamily=Helvetica;fontSize=11;gradientColor=#0050EF;" parent="1" vertex="1">
          <mxGeometry x="610" y="80" width="130" height="110" as="geometry">
            <mxRectangle x="-98" y="-1230" width="99" height="26" as="alternateBounds" />
          </mxGeometry>
        </mxCell>
        <mxCell id="ZBTH2sTNNBvJXLbR3IgM-17" value="" style="rounded=1;whiteSpace=wrap;html=1;sketch=0;points=[[0,0.5,0,0,0],[1,0.5,0,0,0]];arcSize=50;fontFamily=Helvetica;fontSize=11;fontColor=default;" parent="ZBTH2sTNNBvJXLbR3IgM-16" vertex="1">
          <mxGeometry x="-20" y="27.5" width="39.25" height="25" as="geometry" />
        </mxCell>
        <mxCell id="ZBTH2sTNNBvJXLbR3IgM-18" value="✗" style="rounded=1;whiteSpace=wrap;html=1;sketch=0;points=[[0,0.5,0,0,0],[1,0.5,0,0,0]];fillColor=#1ba1e2;fontColor=#ffffff;strokeColor=#006EAF;arcSize=50;fontFamily=Helvetica;fontSize=11;textOpacity=30;opacity=30;" parent="ZBTH2sTNNBvJXLbR3IgM-16" vertex="1">
          <mxGeometry x="110" y="70" width="35.25" height="25" as="geometry" />
        </mxCell>
        <mxCell id="ZBTH2sTNNBvJXLbR3IgM-19" value="" style="rounded=1;whiteSpace=wrap;html=1;sketch=0;points=[[0,0.5,0,0,0],[1,0.5,0,0,0]];fillColor=#1ba1e2;fontColor=#ffffff;strokeColor=#006EAF;arcSize=50;fontFamily=Helvetica;fontSize=11;" parent="ZBTH2sTNNBvJXLbR3IgM-16" vertex="1">
          <mxGeometry x="110" y="27.5" width="35.25" height="25" as="geometry" />
        </mxCell>
        <mxCell id="ZBTH2sTNNBvJXLbR3IgM-22" style="edgeStyle=orthogonalEdgeStyle;shape=connector;curved=0;rounded=1;orthogonalLoop=1;jettySize=auto;html=1;exitX=1;exitY=0.5;exitDx=0;exitDy=0;exitPerimeter=0;entryX=0;entryY=0.5;entryDx=0;entryDy=0;entryPerimeter=0;strokeColor=default;strokeWidth=1;align=center;verticalAlign=middle;fontFamily=Helvetica;fontSize=11;fontColor=default;labelBackgroundColor=default;endArrow=classic;dashed=1;dashPattern=1 4;" parent="1" source="ZBTH2sTNNBvJXLbR3IgM-18" target="GZ_4_-aFKaLcyj-fTqnw-25" edge="1">
          <mxGeometry relative="1" as="geometry">
            <Array as="points">
              <mxPoint x="780" y="163" />
              <mxPoint x="780" y="230" />
            </Array>
          </mxGeometry>
        </mxCell>
        <mxCell id="KBdopvLWY_abbF_o2A7Z-1" value="Rename" style="rounded=1;whiteSpace=wrap;html=1;sketch=0;container=1;recursiveResize=0;verticalAlign=top;arcSize=6;fontStyle=1;autosize=0;points=[];absoluteArcSize=1;shadow=0;strokeColor=#001DBC;fillColor=#D4E4EF;fontColor=#ffffff;fontFamily=Helvetica;fontSize=11;gradientColor=#0050EF;" parent="1" vertex="1">
          <mxGeometry x="830" y="80" width="130" height="110" as="geometry">
            <mxRectangle x="-98" y="-1230" width="99" height="26" as="alternateBounds" />
          </mxGeometry>
        </mxCell>
        <mxCell id="KBdopvLWY_abbF_o2A7Z-2" value="" style="rounded=1;whiteSpace=wrap;html=1;sketch=0;points=[[0,0.5,0,0,0],[1,0.5,0,0,0]];arcSize=50;fontFamily=Helvetica;fontSize=11;fontColor=default;" parent="KBdopvLWY_abbF_o2A7Z-1" vertex="1">
          <mxGeometry x="-20" y="27.5" width="39.25" height="25" as="geometry" />
        </mxCell>
        <mxCell id="KBdopvLWY_abbF_o2A7Z-3" value="✗" style="rounded=1;whiteSpace=wrap;html=1;sketch=0;points=[[0,0.5,0,0,0],[1,0.5,0,0,0]];fillColor=#1ba1e2;fontColor=#ffffff;strokeColor=#006EAF;arcSize=50;fontFamily=Helvetica;fontSize=11;textOpacity=30;opacity=30;" parent="KBdopvLWY_abbF_o2A7Z-1" vertex="1">
          <mxGeometry x="110" y="70" width="35.25" height="25" as="geometry" />
        </mxCell>
        <mxCell id="KBdopvLWY_abbF_o2A7Z-4" value="" style="rounded=1;whiteSpace=wrap;html=1;sketch=0;points=[[0,0.5,0,0,0],[1,0.5,0,0,0]];fillColor=#1ba1e2;fontColor=#ffffff;strokeColor=#006EAF;arcSize=50;fontFamily=Helvetica;fontSize=11;" parent="KBdopvLWY_abbF_o2A7Z-1" vertex="1">
          <mxGeometry x="110" y="27.5" width="35.25" height="25" as="geometry" />
        </mxCell>
        <mxCell id="KBdopvLWY_abbF_o2A7Z-5" style="edgeStyle=orthogonalEdgeStyle;shape=connector;curved=0;rounded=1;orthogonalLoop=1;jettySize=auto;html=1;exitX=1;exitY=0.5;exitDx=0;exitDy=0;exitPerimeter=0;entryX=0;entryY=0.5;entryDx=0;entryDy=0;entryPerimeter=0;strokeColor=default;strokeWidth=2;align=center;verticalAlign=middle;fontFamily=Helvetica;fontSize=11;fontColor=default;labelBackgroundColor=default;endArrow=classic;" parent="1" source="ZBTH2sTNNBvJXLbR3IgM-19" target="KBdopvLWY_abbF_o2A7Z-2" edge="1">
          <mxGeometry relative="1" as="geometry" />
        </mxCell>
        <mxCell id="KBdopvLWY_abbF_o2A7Z-7" style="edgeStyle=orthogonalEdgeStyle;shape=connector;curved=0;rounded=1;orthogonalLoop=1;jettySize=auto;html=1;exitX=1;exitY=0.5;exitDx=0;exitDy=0;exitPerimeter=0;entryX=0;entryY=0.5;entryDx=0;entryDy=0;entryPerimeter=0;strokeColor=default;strokeWidth=1;align=center;verticalAlign=middle;fontFamily=Helvetica;fontSize=11;fontColor=default;labelBackgroundColor=default;endArrow=classic;dashed=1;dashPattern=1 4;" parent="1" source="KBdopvLWY_abbF_o2A7Z-3" target="GZ_4_-aFKaLcyj-fTqnw-25" edge="1">
          <mxGeometry relative="1" as="geometry">
            <Array as="points">
              <mxPoint x="1000" y="163" />
              <mxPoint x="1000" y="230" />
            </Array>
          </mxGeometry>
        </mxCell>
        <mxCell id="2ZBpg3_VJwn1Jiy2G0-2-1" value="Statements" style="rounded=1;whiteSpace=wrap;html=1;sketch=0;container=1;recursiveResize=0;verticalAlign=top;arcSize=6;fontStyle=1;autosize=0;points=[];absoluteArcSize=1;shadow=0;strokeColor=#001DBC;fillColor=#D4E4EF;fontColor=#ffffff;fontFamily=Helvetica;fontSize=11;gradientColor=#0050EF;" parent="1" vertex="1">
          <mxGeometry x="1050" y="80" width="130" height="110" as="geometry">
            <mxRectangle x="-98" y="-1230" width="99" height="26" as="alternateBounds" />
          </mxGeometry>
        </mxCell>
        <mxCell id="2ZBpg3_VJwn1Jiy2G0-2-2" value="" style="rounded=1;whiteSpace=wrap;html=1;sketch=0;points=[[0,0.5,0,0,0],[1,0.5,0,0,0]];arcSize=50;fontFamily=Helvetica;fontSize=11;fontColor=default;" parent="2ZBpg3_VJwn1Jiy2G0-2-1" vertex="1">
          <mxGeometry x="-20" y="27.5" width="39.25" height="25" as="geometry" />
        </mxCell>
        <mxCell id="2ZBpg3_VJwn1Jiy2G0-2-3" value="✗" style="rounded=1;whiteSpace=wrap;html=1;sketch=0;points=[[0,0.5,0,0,0],[1,0.5,0,0,0]];fillColor=#1ba1e2;fontColor=#ffffff;strokeColor=#006EAF;arcSize=50;fontFamily=Helvetica;fontSize=11;textOpacity=30;opacity=30;" parent="2ZBpg3_VJwn1Jiy2G0-2-1" vertex="1">
          <mxGeometry x="110" y="70" width="35.25" height="25" as="geometry" />
        </mxCell>
        <mxCell id="2ZBpg3_VJwn1Jiy2G0-2-4" value="" style="rounded=1;whiteSpace=wrap;html=1;sketch=0;points=[[0,0.5,0,0,0],[1,0.5,0,0,0]];fillColor=#1ba1e2;fontColor=#ffffff;strokeColor=#006EAF;arcSize=50;fontFamily=Helvetica;fontSize=11;" parent="2ZBpg3_VJwn1Jiy2G0-2-1" vertex="1">
          <mxGeometry x="110" y="27.5" width="35.25" height="25" as="geometry" />
        </mxCell>
        <mxCell id="2ZBpg3_VJwn1Jiy2G0-2-5" style="edgeStyle=orthogonalEdgeStyle;shape=connector;curved=0;rounded=1;orthogonalLoop=1;jettySize=auto;html=1;exitX=1;exitY=0.5;exitDx=0;exitDy=0;exitPerimeter=0;entryX=0;entryY=0.5;entryDx=0;entryDy=0;entryPerimeter=0;strokeColor=default;strokeWidth=2;align=center;verticalAlign=middle;fontFamily=Helvetica;fontSize=11;fontColor=default;labelBackgroundColor=default;endArrow=classic;" parent="1" source="KBdopvLWY_abbF_o2A7Z-4" target="2ZBpg3_VJwn1Jiy2G0-2-2" edge="1">
          <mxGeometry relative="1" as="geometry" />
        </mxCell>
        <mxCell id="2ZBpg3_VJwn1Jiy2G0-2-7" style="edgeStyle=orthogonalEdgeStyle;shape=connector;curved=0;rounded=1;orthogonalLoop=1;jettySize=auto;html=1;exitX=1;exitY=0.5;exitDx=0;exitDy=0;exitPerimeter=0;entryX=0;entryY=0.5;entryDx=0;entryDy=0;entryPerimeter=0;strokeColor=default;strokeWidth=1;align=center;verticalAlign=middle;fontFamily=Helvetica;fontSize=11;fontColor=default;labelBackgroundColor=default;endArrow=classic;dashed=1;dashPattern=1 4;" parent="1" source="2ZBpg3_VJwn1Jiy2G0-2-3" target="GZ_4_-aFKaLcyj-fTqnw-25" edge="1">
          <mxGeometry relative="1" as="geometry">
            <Array as="points">
              <mxPoint x="1220" y="163" />
              <mxPoint x="1220" y="230" />
            </Array>
          </mxGeometry>
        </mxCell>
        <mxCell id="2ZBpg3_VJwn1Jiy2G0-2-8" style="edgeStyle=orthogonalEdgeStyle;shape=connector;curved=0;rounded=1;orthogonalLoop=1;jettySize=auto;html=1;exitX=1;exitY=0.5;exitDx=0;exitDy=0;exitPerimeter=0;strokeColor=default;strokeWidth=2;align=center;verticalAlign=middle;fontFamily=Helvetica;fontSize=11;fontColor=default;labelBackgroundColor=default;endArrow=classic;" parent="1" source="2ZBpg3_VJwn1Jiy2G0-2-4" target="2y3P-0cfO2r3NAotVrSD-1" edge="1">
          <mxGeometry relative="1" as="geometry" />
        </mxCell>
        <mxCell id="wYkgGcTQ12v7BVFVA0fD-20" value=":?a" style="rounded=1;whiteSpace=wrap;html=1;sketch=0;container=1;recursiveResize=0;verticalAlign=top;arcSize=6;fontStyle=1;autosize=0;points=[];absoluteArcSize=1;shadow=0;strokeColor=#b85450;fillColor=#f8cecc;fontFamily=Helvetica;fontSize=11;" parent="1" vertex="1">
          <mxGeometry x="420" y="330" width="80" height="70" as="geometry">
            <mxRectangle x="-98" y="-1230" width="99" height="26" as="alternateBounds" />
          </mxGeometry>
        </mxCell>
        <mxCell id="wYkgGcTQ12v7BVFVA0fD-21" value="" style="rounded=1;whiteSpace=wrap;html=1;sketch=0;points=[[0,0.5,0,0,0],[1,0.5,0,0,0]];arcSize=50;fontFamily=Helvetica;fontSize=11;fontColor=default;" parent="wYkgGcTQ12v7BVFVA0fD-20" vertex="1">
          <mxGeometry x="-20" y="27.5" width="39.25" height="25" as="geometry" />
        </mxCell>
        <mxCell id="wYkgGcTQ12v7BVFVA0fD-24" value=":?b" style="rounded=1;whiteSpace=wrap;html=1;sketch=0;container=1;recursiveResize=0;verticalAlign=top;arcSize=6;fontStyle=1;autosize=0;points=[];absoluteArcSize=1;shadow=0;strokeColor=#b85450;fillColor=#f8cecc;fontFamily=Helvetica;fontSize=11;" parent="1" vertex="1">
          <mxGeometry x="580" y="330" width="80" height="70" as="geometry">
            <mxRectangle x="-98" y="-1230" width="99" height="26" as="alternateBounds" />
          </mxGeometry>
        </mxCell>
        <mxCell id="wYkgGcTQ12v7BVFVA0fD-25" value="" style="rounded=1;whiteSpace=wrap;html=1;sketch=0;points=[[0,0.5,0,0,0],[1,0.5,0,0,0]];arcSize=50;fontFamily=Helvetica;fontSize=11;fontColor=default;" parent="wYkgGcTQ12v7BVFVA0fD-24" vertex="1">
          <mxGeometry x="-20" y="27.5" width="39.25" height="25" as="geometry" />
        </mxCell>
        <mxCell id="wYkgGcTQ12v7BVFVA0fD-26" value=":?c" style="rounded=1;whiteSpace=wrap;html=1;sketch=0;container=1;recursiveResize=0;verticalAlign=top;arcSize=6;fontStyle=1;autosize=0;points=[];absoluteArcSize=1;shadow=0;strokeColor=#b85450;fillColor=#f8cecc;fontFamily=Helvetica;fontSize=11;" parent="1" vertex="1">
          <mxGeometry x="740" y="330" width="80" height="70" as="geometry">
            <mxRectangle x="-98" y="-1230" width="99" height="26" as="alternateBounds" />
          </mxGeometry>
        </mxCell>
        <mxCell id="wYkgGcTQ12v7BVFVA0fD-27" value="" style="rounded=1;whiteSpace=wrap;html=1;sketch=0;points=[[0,0.5,0,0,0],[1,0.5,0,0,0]];arcSize=50;fontFamily=Helvetica;fontSize=11;fontColor=default;" parent="wYkgGcTQ12v7BVFVA0fD-26" vertex="1">
          <mxGeometry x="-20" y="27.5" width="39.25" height="25" as="geometry" />
        </mxCell>
        <mxCell id="wYkgGcTQ12v7BVFVA0fD-28" value=":?d" style="rounded=1;whiteSpace=wrap;html=1;sketch=0;container=1;recursiveResize=0;verticalAlign=top;arcSize=6;fontStyle=1;autosize=0;points=[];absoluteArcSize=1;shadow=0;strokeColor=#b85450;fillColor=#f8cecc;fontFamily=Helvetica;fontSize=11;" parent="1" vertex="1">
          <mxGeometry x="900" y="330" width="80" height="70" as="geometry">
            <mxRectangle x="-98" y="-1230" width="99" height="26" as="alternateBounds" />
          </mxGeometry>
        </mxCell>
        <mxCell id="wYkgGcTQ12v7BVFVA0fD-29" value="" style="rounded=1;whiteSpace=wrap;html=1;sketch=0;points=[[0,0.5,0,0,0],[1,0.5,0,0,0]];arcSize=50;fontFamily=Helvetica;fontSize=11;fontColor=default;" parent="wYkgGcTQ12v7BVFVA0fD-28" vertex="1">
          <mxGeometry x="-20" y="27.5" width="39.25" height="25" as="geometry" />
        </mxCell>
        <mxCell id="wYkgGcTQ12v7BVFVA0fD-30" style="edgeStyle=orthogonalEdgeStyle;shape=connector;curved=0;rounded=1;orthogonalLoop=1;jettySize=auto;html=1;exitX=1;exitY=0.5;exitDx=0;exitDy=0;exitPerimeter=0;entryX=0;entryY=0.5;entryDx=0;entryDy=0;entryPerimeter=0;strokeColor=default;strokeWidth=2;align=center;verticalAlign=middle;fontFamily=Helvetica;fontSize=11;fontColor=default;labelBackgroundColor=default;endArrow=classic;" parent="1" source="aZxXlgppM9aiWmMxKNXG-3" target="wYkgGcTQ12v7BVFVA0fD-21" edge="1">
          <mxGeometry relative="1" as="geometry" />
        </mxCell>
        <mxCell id="wYkgGcTQ12v7BVFVA0fD-31" style="edgeStyle=orthogonalEdgeStyle;shape=connector;curved=0;rounded=1;orthogonalLoop=1;jettySize=auto;html=1;exitX=1;exitY=0.5;exitDx=0;exitDy=0;exitPerimeter=0;entryX=0;entryY=0.5;entryDx=0;entryDy=0;entryPerimeter=0;strokeColor=default;strokeWidth=2;align=center;verticalAlign=middle;fontFamily=Helvetica;fontSize=11;fontColor=default;labelBackgroundColor=default;endArrow=classic;" parent="1" source="ZBTH2sTNNBvJXLbR3IgM-13" target="wYkgGcTQ12v7BVFVA0fD-25" edge="1">
          <mxGeometry relative="1" as="geometry" />
        </mxCell>
        <mxCell id="wYkgGcTQ12v7BVFVA0fD-32" style="edgeStyle=orthogonalEdgeStyle;shape=connector;curved=0;rounded=1;orthogonalLoop=1;jettySize=auto;html=1;exitX=1;exitY=0.5;exitDx=0;exitDy=0;exitPerimeter=0;entryX=0;entryY=0.5;entryDx=0;entryDy=0;entryPerimeter=0;strokeColor=default;strokeWidth=2;align=center;verticalAlign=middle;fontFamily=Helvetica;fontSize=11;fontColor=default;labelBackgroundColor=default;endArrow=classic;" parent="1" source="ZBTH2sTNNBvJXLbR3IgM-19" target="wYkgGcTQ12v7BVFVA0fD-27" edge="1">
          <mxGeometry relative="1" as="geometry" />
        </mxCell>
        <mxCell id="wYkgGcTQ12v7BVFVA0fD-33" style="edgeStyle=orthogonalEdgeStyle;shape=connector;curved=0;rounded=1;orthogonalLoop=1;jettySize=auto;html=1;exitX=1;exitY=0.5;exitDx=0;exitDy=0;exitPerimeter=0;entryX=0;entryY=0.5;entryDx=0;entryDy=0;entryPerimeter=0;strokeColor=default;strokeWidth=2;align=center;verticalAlign=middle;fontFamily=Helvetica;fontSize=11;fontColor=default;labelBackgroundColor=default;endArrow=classic;" parent="1" source="KBdopvLWY_abbF_o2A7Z-4" target="wYkgGcTQ12v7BVFVA0fD-29" edge="1">
          <mxGeometry relative="1" as="geometry" />
        </mxCell>
        <mxCell id="YAxILihxskT9KSbRsUmg-1" style="edgeStyle=orthogonalEdgeStyle;rounded=1;orthogonalLoop=1;jettySize=auto;html=1;exitX=1;exitY=0.5;exitDx=0;exitDy=0;exitPerimeter=0;entryX=0;entryY=0.5;entryDx=0;entryDy=0;entryPerimeter=0;strokeWidth=2;curved=0;" parent="1" source="ZBTH2sTNNBvJXLbR3IgM-13" target="2ZBpg3_VJwn1Jiy2G0-2-2" edge="1">
          <mxGeometry relative="1" as="geometry">
            <Array as="points">
              <mxPoint x="535" y="40" />
              <mxPoint x="1030" y="40" />
            </Array>
          </mxGeometry>
        </mxCell>
      </root>
    </mxGraphModel>
  </diagram>
  <diagram name="Unquote" id="DsGJeCk2Ss1RIYV4jjKU">
    <mxGraphModel dx="946" dy="732" grid="1" gridSize="10" guides="1" tooltips="1" connect="1" arrows="1" fold="1" page="1" pageScale="1" pageWidth="850" pageHeight="1100" math="0" shadow="0">
      <root>
        <mxCell id="u57hV6R-wIHW0BZcvFjU-0" />
        <mxCell id="u57hV6R-wIHW0BZcvFjU-1" parent="u57hV6R-wIHW0BZcvFjU-0" />
        <mxCell id="qUXiE29FCXPB7mMpxqje-0" style="edgeStyle=orthogonalEdgeStyle;shape=connector;rounded=1;jumpStyle=arc;orthogonalLoop=1;jettySize=auto;html=1;exitX=1;exitY=0.5;exitDx=0;exitDy=0;exitPerimeter=0;entryX=0;entryY=0.5;entryDx=0;entryDy=0;entryPerimeter=0;labelBackgroundColor=default;strokeColor=#666666;strokeWidth=2;fontFamily=Helvetica;fontSize=11;fontColor=default;endArrow=classic;fillColor=#f5f5f5;opacity=90;" parent="u57hV6R-wIHW0BZcvFjU-1" source="qUXiE29FCXPB7mMpxqje-1" target="qUXiE29FCXPB7mMpxqje-7" edge="1">
          <mxGeometry relative="1" as="geometry">
            <mxPoint x="203.25" y="640" as="targetPoint" />
          </mxGeometry>
        </mxCell>
        <mxCell id="qUXiE29FCXPB7mMpxqje-1" value="" style="rhombus;whiteSpace=wrap;html=1;rounded=1;fontStyle=1;glass=0;sketch=0;fontSize=12;points=[[0,0.5,0,0,0],[0.5,0,0,0,0],[0.5,1,0,0,0],[1,0.5,0,0,0]];shadow=1;fontFamily=Helvetica;fontColor=default;" parent="u57hV6R-wIHW0BZcvFjU-1" vertex="1">
          <mxGeometry x="80" y="557.5" width="40" height="40" as="geometry" />
        </mxCell>
        <mxCell id="qUXiE29FCXPB7mMpxqje-2" value="" style="rhombus;whiteSpace=wrap;html=1;rounded=1;fillColor=#0050ef;fontColor=#ffffff;strokeColor=#001DBC;fontStyle=1;glass=0;sketch=0;fontSize=12;points=[[0,0.5,0,0,0],[0.5,0,0,0,0],[0.5,1,0,0,0],[1,0.5,0,0,0]];shadow=1;fontFamily=Helvetica;" parent="u57hV6R-wIHW0BZcvFjU-1" vertex="1">
          <mxGeometry x="620" y="522.5" width="40" height="40" as="geometry" />
        </mxCell>
        <mxCell id="qUXiE29FCXPB7mMpxqje-3" style="edgeStyle=orthogonalEdgeStyle;shape=connector;rounded=1;jumpStyle=arc;orthogonalLoop=1;jettySize=auto;html=1;exitX=1;exitY=0.5;exitDx=0;exitDy=0;exitPerimeter=0;entryX=0;entryY=0.5;entryDx=0;entryDy=0;entryPerimeter=0;labelBackgroundColor=default;strokeColor=#666666;strokeWidth=2;fontFamily=Helvetica;fontSize=11;fontColor=default;endArrow=classic;fillColor=#f5f5f5;opacity=90;" parent="u57hV6R-wIHW0BZcvFjU-1" source="qUXiE29FCXPB7mMpxqje-8" target="qUXiE29FCXPB7mMpxqje-2" edge="1">
          <mxGeometry relative="1" as="geometry" />
        </mxCell>
        <mxCell id="qUXiE29FCXPB7mMpxqje-4" value="✗" style="rhombus;whiteSpace=wrap;html=1;rounded=1;fillColor=#0050ef;fontColor=#ffffff;strokeColor=#001DBC;fontStyle=1;glass=0;sketch=0;fontSize=12;points=[[0,0.5,0,0,0],[0.5,0,0,0,0],[0.5,1,0,0,0],[1,0.5,0,0,0]];shadow=1;fontFamily=Helvetica;" parent="u57hV6R-wIHW0BZcvFjU-1" vertex="1">
          <mxGeometry x="620" y="600" width="40" height="40" as="geometry" />
        </mxCell>
        <mxCell id="qUXiE29FCXPB7mMpxqje-5" style="edgeStyle=orthogonalEdgeStyle;shape=connector;rounded=1;jumpStyle=arc;orthogonalLoop=1;jettySize=auto;html=1;exitX=1;exitY=0.5;exitDx=0;exitDy=0;exitPerimeter=0;entryX=0;entryY=0.5;entryDx=0;entryDy=0;entryPerimeter=0;labelBackgroundColor=default;strokeColor=#666666;strokeWidth=1;fontFamily=Helvetica;fontSize=11;fontColor=default;endArrow=classic;fillColor=#f5f5f5;opacity=90;dashed=1;" parent="u57hV6R-wIHW0BZcvFjU-1" source="qUXiE29FCXPB7mMpxqje-9" target="qUXiE29FCXPB7mMpxqje-4" edge="1">
          <mxGeometry relative="1" as="geometry" />
        </mxCell>
        <mxCell id="qUXiE29FCXPB7mMpxqje-6" value=":$ pbp/t2t.bash . ./pbp scm.ohm unquote.rwr empty.js -" style="rounded=1;whiteSpace=wrap;html=1;sketch=0;container=1;recursiveResize=0;verticalAlign=top;arcSize=6;fontStyle=1;autosize=0;points=[];absoluteArcSize=1;shadow=1;strokeColor=#001DBC;fillColor=#D4E4EF;fontColor=#ffffff;fontFamily=Helvetica;fontSize=11;gradientColor=#0050EF;" parent="u57hV6R-wIHW0BZcvFjU-1" vertex="1">
          <mxGeometry x="180" y="480" width="320" height="130" as="geometry">
            <mxRectangle x="-98" y="-1230" width="99" height="26" as="alternateBounds" />
          </mxGeometry>
        </mxCell>
        <mxCell id="qUXiE29FCXPB7mMpxqje-7" value="" style="rounded=1;whiteSpace=wrap;html=1;sketch=0;points=[[0,0.5,0,0,0],[1,0.5,0,0,0]];arcSize=50;fontFamily=Helvetica;fontSize=11;fontColor=default;" parent="qUXiE29FCXPB7mMpxqje-6" vertex="1">
          <mxGeometry x="-10" y="85" width="36" height="25" as="geometry" />
        </mxCell>
        <mxCell id="qUXiE29FCXPB7mMpxqje-8" value="" style="rounded=1;whiteSpace=wrap;html=1;sketch=0;points=[[0,0.5,0,0,0],[1,0.5,0,0,0]];fillColor=#1ba1e2;fontColor=#ffffff;strokeColor=#006EAF;arcSize=50;fontFamily=Helvetica;fontSize=11;" parent="qUXiE29FCXPB7mMpxqje-6" vertex="1">
          <mxGeometry x="300" y="50" width="40" height="25" as="geometry" />
        </mxCell>
        <mxCell id="qUXiE29FCXPB7mMpxqje-9" value="✗" style="rounded=1;whiteSpace=wrap;html=1;sketch=0;points=[[0,0.5,0,0,0],[1,0.5,0,0,0]];fillColor=#1ba1e2;fontColor=#ffffff;strokeColor=#006EAF;arcSize=50;fontFamily=Helvetica;fontSize=11;opacity=30;textOpacity=30;" parent="qUXiE29FCXPB7mMpxqje-6" vertex="1">
          <mxGeometry x="300" y="85" width="40" height="30" as="geometry" />
        </mxCell>
      </root>
    </mxGraphModel>
  </diagram>
  <diagram name="Rename" id="FIy7OQEUSMil79xNf-9H">
    <mxGraphModel dx="1103" dy="732" grid="1" gridSize="10" guides="1" tooltips="1" connect="1" arrows="1" fold="1" page="1" pageScale="1" pageWidth="850" pageHeight="1100" math="0" shadow="0">
      <root>
        <mxCell id="qbNLr-g5WE19vZ-m40pV-0" />
        <mxCell id="qbNLr-g5WE19vZ-m40pV-1" parent="qbNLr-g5WE19vZ-m40pV-0" />
        <mxCell id="qbNLr-g5WE19vZ-m40pV-2" style="edgeStyle=orthogonalEdgeStyle;shape=connector;rounded=1;jumpStyle=arc;orthogonalLoop=1;jettySize=auto;html=1;exitX=1;exitY=0.5;exitDx=0;exitDy=0;exitPerimeter=0;entryX=0;entryY=0.5;entryDx=0;entryDy=0;entryPerimeter=0;labelBackgroundColor=default;strokeColor=#666666;strokeWidth=2;fontFamily=Helvetica;fontSize=11;fontColor=default;endArrow=classic;fillColor=#f5f5f5;opacity=90;" edge="1" parent="qbNLr-g5WE19vZ-m40pV-1" source="qbNLr-g5WE19vZ-m40pV-3" target="qbNLr-g5WE19vZ-m40pV-9">
          <mxGeometry relative="1" as="geometry">
            <mxPoint x="203.25" y="640" as="targetPoint" />
          </mxGeometry>
        </mxCell>
        <mxCell id="qbNLr-g5WE19vZ-m40pV-3" value="" style="rhombus;whiteSpace=wrap;html=1;rounded=1;fontStyle=1;glass=0;sketch=0;fontSize=12;points=[[0,0.5,0,0,0],[0.5,0,0,0,0],[0.5,1,0,0,0],[1,0.5,0,0,0]];shadow=1;fontFamily=Helvetica;fontColor=default;" vertex="1" parent="qbNLr-g5WE19vZ-m40pV-1">
          <mxGeometry x="80" y="557.5" width="40" height="40" as="geometry" />
        </mxCell>
        <mxCell id="qbNLr-g5WE19vZ-m40pV-4" value="" style="rhombus;whiteSpace=wrap;html=1;rounded=1;fillColor=#0050ef;fontColor=#ffffff;strokeColor=#001DBC;fontStyle=1;glass=0;sketch=0;fontSize=12;points=[[0,0.5,0,0,0],[0.5,0,0,0,0],[0.5,1,0,0,0],[1,0.5,0,0,0]];shadow=1;fontFamily=Helvetica;" vertex="1" parent="qbNLr-g5WE19vZ-m40pV-1">
          <mxGeometry x="620" y="522.5" width="40" height="40" as="geometry" />
        </mxCell>
        <mxCell id="qbNLr-g5WE19vZ-m40pV-5" style="edgeStyle=orthogonalEdgeStyle;shape=connector;rounded=1;jumpStyle=arc;orthogonalLoop=1;jettySize=auto;html=1;exitX=1;exitY=0.5;exitDx=0;exitDy=0;exitPerimeter=0;entryX=0;entryY=0.5;entryDx=0;entryDy=0;entryPerimeter=0;labelBackgroundColor=default;strokeColor=#666666;strokeWidth=2;fontFamily=Helvetica;fontSize=11;fontColor=default;endArrow=classic;fillColor=#f5f5f5;opacity=90;" edge="1" parent="qbNLr-g5WE19vZ-m40pV-1" source="qbNLr-g5WE19vZ-m40pV-10" target="qbNLr-g5WE19vZ-m40pV-4">
          <mxGeometry relative="1" as="geometry" />
        </mxCell>
        <mxCell id="qbNLr-g5WE19vZ-m40pV-6" value="✗" style="rhombus;whiteSpace=wrap;html=1;rounded=1;fillColor=#0050ef;fontColor=#ffffff;strokeColor=#001DBC;fontStyle=1;glass=0;sketch=0;fontSize=12;points=[[0,0.5,0,0,0],[0.5,0,0,0,0],[0.5,1,0,0,0],[1,0.5,0,0,0]];shadow=1;fontFamily=Helvetica;" vertex="1" parent="qbNLr-g5WE19vZ-m40pV-1">
          <mxGeometry x="620" y="600" width="40" height="40" as="geometry" />
        </mxCell>
        <mxCell id="qbNLr-g5WE19vZ-m40pV-7" style="edgeStyle=orthogonalEdgeStyle;shape=connector;rounded=1;jumpStyle=arc;orthogonalLoop=1;jettySize=auto;html=1;exitX=1;exitY=0.5;exitDx=0;exitDy=0;exitPerimeter=0;entryX=0;entryY=0.5;entryDx=0;entryDy=0;entryPerimeter=0;labelBackgroundColor=default;strokeColor=#666666;strokeWidth=1;fontFamily=Helvetica;fontSize=11;fontColor=default;endArrow=classic;fillColor=#f5f5f5;opacity=90;dashed=1;" edge="1" parent="qbNLr-g5WE19vZ-m40pV-1" source="qbNLr-g5WE19vZ-m40pV-11" target="qbNLr-g5WE19vZ-m40pV-6">
          <mxGeometry relative="1" as="geometry" />
        </mxCell>
        <mxCell id="qbNLr-g5WE19vZ-m40pV-8" value=":$ pbp/t2t.bash . ./pbp rename.ohm rename.rwr empty.js -" style="rounded=1;whiteSpace=wrap;html=1;sketch=0;container=1;recursiveResize=0;verticalAlign=top;arcSize=6;fontStyle=1;autosize=0;points=[];absoluteArcSize=1;shadow=1;strokeColor=#001DBC;fillColor=#D4E4EF;fontColor=#ffffff;fontFamily=Helvetica;fontSize=11;gradientColor=#0050EF;" vertex="1" parent="qbNLr-g5WE19vZ-m40pV-1">
          <mxGeometry x="180" y="480" width="320" height="130" as="geometry">
            <mxRectangle x="-98" y="-1230" width="99" height="26" as="alternateBounds" />
          </mxGeometry>
        </mxCell>
        <mxCell id="qbNLr-g5WE19vZ-m40pV-9" value="" style="rounded=1;whiteSpace=wrap;html=1;sketch=0;points=[[0,0.5,0,0,0],[1,0.5,0,0,0]];arcSize=50;fontFamily=Helvetica;fontSize=11;fontColor=default;" vertex="1" parent="qbNLr-g5WE19vZ-m40pV-8">
          <mxGeometry x="-10" y="85" width="36" height="25" as="geometry" />
        </mxCell>
        <mxCell id="qbNLr-g5WE19vZ-m40pV-10" value="" style="rounded=1;whiteSpace=wrap;html=1;sketch=0;points=[[0,0.5,0,0,0],[1,0.5,0,0,0]];fillColor=#1ba1e2;fontColor=#ffffff;strokeColor=#006EAF;arcSize=50;fontFamily=Helvetica;fontSize=11;" vertex="1" parent="qbNLr-g5WE19vZ-m40pV-8">
          <mxGeometry x="300" y="50" width="40" height="25" as="geometry" />
        </mxCell>
        <mxCell id="qbNLr-g5WE19vZ-m40pV-11" value="✗" style="rounded=1;whiteSpace=wrap;html=1;sketch=0;points=[[0,0.5,0,0,0],[1,0.5,0,0,0]];fillColor=#1ba1e2;fontColor=#ffffff;strokeColor=#006EAF;arcSize=50;fontFamily=Helvetica;fontSize=11;opacity=30;textOpacity=30;" vertex="1" parent="qbNLr-g5WE19vZ-m40pV-8">
          <mxGeometry x="300" y="85" width="40" height="30" as="geometry" />
        </mxCell>
      </root>
    </mxGraphModel>
  </diagram>
  <diagram name="Unbq" id="uNZ4KSublE2SG_j6Pc69">
    <mxGraphModel dx="1103" dy="732" grid="1" gridSize="10" guides="1" tooltips="1" connect="1" arrows="1" fold="1" page="1" pageScale="1" pageWidth="850" pageHeight="1100" math="0" shadow="0">
      <root>
        <mxCell id="t6WgLfELoCU1mXY9YYB7-0" />
        <mxCell id="t6WgLfELoCU1mXY9YYB7-1" parent="t6WgLfELoCU1mXY9YYB7-0" />
        <mxCell id="t6WgLfELoCU1mXY9YYB7-2" style="edgeStyle=orthogonalEdgeStyle;shape=connector;rounded=1;jumpStyle=arc;orthogonalLoop=1;jettySize=auto;html=1;exitX=1;exitY=0.5;exitDx=0;exitDy=0;exitPerimeter=0;entryX=0;entryY=0.5;entryDx=0;entryDy=0;entryPerimeter=0;labelBackgroundColor=default;strokeColor=#666666;strokeWidth=2;fontFamily=Helvetica;fontSize=11;fontColor=default;endArrow=classic;fillColor=#f5f5f5;opacity=90;" edge="1" parent="t6WgLfELoCU1mXY9YYB7-1" source="t6WgLfELoCU1mXY9YYB7-3" target="t6WgLfELoCU1mXY9YYB7-9">
          <mxGeometry relative="1" as="geometry">
            <mxPoint x="183.25" y="200" as="targetPoint" />
          </mxGeometry>
        </mxCell>
        <mxCell id="t6WgLfELoCU1mXY9YYB7-3" value="" style="rhombus;whiteSpace=wrap;html=1;rounded=1;fontStyle=1;glass=0;sketch=0;fontSize=12;points=[[0,0.5,0,0,0],[0.5,0,0,0,0],[0.5,1,0,0,0],[1,0.5,0,0,0]];shadow=1;fontFamily=Helvetica;fontColor=default;" vertex="1" parent="t6WgLfELoCU1mXY9YYB7-1">
          <mxGeometry x="60" y="117.5" width="40" height="40" as="geometry" />
        </mxCell>
        <mxCell id="t6WgLfELoCU1mXY9YYB7-4" value="" style="rhombus;whiteSpace=wrap;html=1;rounded=1;fillColor=#0050ef;fontColor=#ffffff;strokeColor=#001DBC;fontStyle=1;glass=0;sketch=0;fontSize=12;points=[[0,0.5,0,0,0],[0.5,0,0,0,0],[0.5,1,0,0,0],[1,0.5,0,0,0]];shadow=1;fontFamily=Helvetica;" vertex="1" parent="t6WgLfELoCU1mXY9YYB7-1">
          <mxGeometry x="600" y="82.5" width="40" height="40" as="geometry" />
        </mxCell>
        <mxCell id="t6WgLfELoCU1mXY9YYB7-5" style="edgeStyle=orthogonalEdgeStyle;shape=connector;rounded=1;jumpStyle=arc;orthogonalLoop=1;jettySize=auto;html=1;exitX=1;exitY=0.5;exitDx=0;exitDy=0;exitPerimeter=0;entryX=0;entryY=0.5;entryDx=0;entryDy=0;entryPerimeter=0;labelBackgroundColor=default;strokeColor=#666666;strokeWidth=2;fontFamily=Helvetica;fontSize=11;fontColor=default;endArrow=classic;fillColor=#f5f5f5;opacity=90;" edge="1" parent="t6WgLfELoCU1mXY9YYB7-1" source="t6WgLfELoCU1mXY9YYB7-10" target="t6WgLfELoCU1mXY9YYB7-4">
          <mxGeometry relative="1" as="geometry" />
        </mxCell>
        <mxCell id="t6WgLfELoCU1mXY9YYB7-6" value="✗" style="rhombus;whiteSpace=wrap;html=1;rounded=1;fillColor=#0050ef;fontColor=#ffffff;strokeColor=#001DBC;fontStyle=1;glass=0;sketch=0;fontSize=12;points=[[0,0.5,0,0,0],[0.5,0,0,0,0],[0.5,1,0,0,0],[1,0.5,0,0,0]];shadow=1;fontFamily=Helvetica;" vertex="1" parent="t6WgLfELoCU1mXY9YYB7-1">
          <mxGeometry x="600" y="160" width="40" height="40" as="geometry" />
        </mxCell>
        <mxCell id="t6WgLfELoCU1mXY9YYB7-7" style="edgeStyle=orthogonalEdgeStyle;shape=connector;rounded=1;jumpStyle=arc;orthogonalLoop=1;jettySize=auto;html=1;exitX=1;exitY=0.5;exitDx=0;exitDy=0;exitPerimeter=0;entryX=0;entryY=0.5;entryDx=0;entryDy=0;entryPerimeter=0;labelBackgroundColor=default;strokeColor=#666666;strokeWidth=1;fontFamily=Helvetica;fontSize=11;fontColor=default;endArrow=classic;fillColor=#f5f5f5;opacity=90;dashed=1;" edge="1" parent="t6WgLfELoCU1mXY9YYB7-1" source="t6WgLfELoCU1mXY9YYB7-11" target="t6WgLfELoCU1mXY9YYB7-6">
          <mxGeometry relative="1" as="geometry" />
        </mxCell>
        <mxCell id="t6WgLfELoCU1mXY9YYB7-8" value=":$ pbp/t2t.bash . ./pbp unbq.ohm unbq.rwr empty.js -" style="rounded=1;whiteSpace=wrap;html=1;sketch=0;container=1;recursiveResize=0;verticalAlign=top;arcSize=6;fontStyle=1;autosize=0;points=[];absoluteArcSize=1;shadow=1;strokeColor=#001DBC;fillColor=#D4E4EF;fontColor=#ffffff;fontFamily=Helvetica;fontSize=11;gradientColor=#0050EF;" vertex="1" parent="t6WgLfELoCU1mXY9YYB7-1">
          <mxGeometry x="160" y="40" width="320" height="130" as="geometry">
            <mxRectangle x="-98" y="-1230" width="99" height="26" as="alternateBounds" />
          </mxGeometry>
        </mxCell>
        <mxCell id="t6WgLfELoCU1mXY9YYB7-9" value="" style="rounded=1;whiteSpace=wrap;html=1;sketch=0;points=[[0,0.5,0,0,0],[1,0.5,0,0,0]];arcSize=50;fontFamily=Helvetica;fontSize=11;fontColor=default;" vertex="1" parent="t6WgLfELoCU1mXY9YYB7-8">
          <mxGeometry x="-10" y="85" width="36" height="25" as="geometry" />
        </mxCell>
        <mxCell id="t6WgLfELoCU1mXY9YYB7-10" value="" style="rounded=1;whiteSpace=wrap;html=1;sketch=0;points=[[0,0.5,0,0,0],[1,0.5,0,0,0]];fillColor=#1ba1e2;fontColor=#ffffff;strokeColor=#006EAF;arcSize=50;fontFamily=Helvetica;fontSize=11;" vertex="1" parent="t6WgLfELoCU1mXY9YYB7-8">
          <mxGeometry x="300" y="50" width="40" height="25" as="geometry" />
        </mxCell>
        <mxCell id="t6WgLfELoCU1mXY9YYB7-11" value="✗" style="rounded=1;whiteSpace=wrap;html=1;sketch=0;points=[[0,0.5,0,0,0],[1,0.5,0,0,0]];fillColor=#1ba1e2;fontColor=#ffffff;strokeColor=#006EAF;arcSize=50;fontFamily=Helvetica;fontSize=11;opacity=30;textOpacity=30;" vertex="1" parent="t6WgLfELoCU1mXY9YYB7-8">
          <mxGeometry x="300" y="85" width="40" height="30" as="geometry" />
        </mxCell>
      </root>
    </mxGraphModel>
  </diagram>
  <diagram name="Statements" id="hQT59OggvSqLemuMlFkZ">
    <mxGraphModel dx="1103" dy="732" grid="1" gridSize="10" guides="1" tooltips="1" connect="1" arrows="1" fold="1" page="1" pageScale="1" pageWidth="850" pageHeight="1100" math="0" shadow="0">
      <root>
        <mxCell id="3s5xODkQfgbdTGdVHeQF-0" />
        <mxCell id="3s5xODkQfgbdTGdVHeQF-1" parent="3s5xODkQfgbdTGdVHeQF-0" />
        <mxCell id="3s5xODkQfgbdTGdVHeQF-2" style="edgeStyle=orthogonalEdgeStyle;shape=connector;rounded=1;jumpStyle=arc;orthogonalLoop=1;jettySize=auto;html=1;exitX=1;exitY=0.5;exitDx=0;exitDy=0;exitPerimeter=0;entryX=0;entryY=0.5;entryDx=0;entryDy=0;entryPerimeter=0;labelBackgroundColor=default;strokeColor=#666666;strokeWidth=2;fontFamily=Helvetica;fontSize=11;fontColor=default;endArrow=classic;fillColor=#f5f5f5;opacity=90;" parent="3s5xODkQfgbdTGdVHeQF-1" source="3s5xODkQfgbdTGdVHeQF-3" target="3s5xODkQfgbdTGdVHeQF-9" edge="1">
          <mxGeometry relative="1" as="geometry">
            <mxPoint x="183.25" y="200" as="targetPoint" />
          </mxGeometry>
        </mxCell>
        <mxCell id="3s5xODkQfgbdTGdVHeQF-3" value="" style="rhombus;whiteSpace=wrap;html=1;rounded=1;fontStyle=1;glass=0;sketch=0;fontSize=12;points=[[0,0.5,0,0,0],[0.5,0,0,0,0],[0.5,1,0,0,0],[1,0.5,0,0,0]];shadow=1;fontFamily=Helvetica;fontColor=default;" parent="3s5xODkQfgbdTGdVHeQF-1" vertex="1">
          <mxGeometry x="60" y="117.5" width="40" height="40" as="geometry" />
        </mxCell>
        <mxCell id="3s5xODkQfgbdTGdVHeQF-4" value="" style="rhombus;whiteSpace=wrap;html=1;rounded=1;fillColor=#0050ef;fontColor=#ffffff;strokeColor=#001DBC;fontStyle=1;glass=0;sketch=0;fontSize=12;points=[[0,0.5,0,0,0],[0.5,0,0,0,0],[0.5,1,0,0,0],[1,0.5,0,0,0]];shadow=1;fontFamily=Helvetica;" parent="3s5xODkQfgbdTGdVHeQF-1" vertex="1">
          <mxGeometry x="600" y="82.5" width="40" height="40" as="geometry" />
        </mxCell>
        <mxCell id="3s5xODkQfgbdTGdVHeQF-5" style="edgeStyle=orthogonalEdgeStyle;shape=connector;rounded=1;jumpStyle=arc;orthogonalLoop=1;jettySize=auto;html=1;exitX=1;exitY=0.5;exitDx=0;exitDy=0;exitPerimeter=0;entryX=0;entryY=0.5;entryDx=0;entryDy=0;entryPerimeter=0;labelBackgroundColor=default;strokeColor=#666666;strokeWidth=2;fontFamily=Helvetica;fontSize=11;fontColor=default;endArrow=classic;fillColor=#f5f5f5;opacity=90;" parent="3s5xODkQfgbdTGdVHeQF-1" source="3s5xODkQfgbdTGdVHeQF-10" target="3s5xODkQfgbdTGdVHeQF-4" edge="1">
          <mxGeometry relative="1" as="geometry" />
        </mxCell>
        <mxCell id="3s5xODkQfgbdTGdVHeQF-6" value="✗" style="rhombus;whiteSpace=wrap;html=1;rounded=1;fillColor=#0050ef;fontColor=#ffffff;strokeColor=#001DBC;fontStyle=1;glass=0;sketch=0;fontSize=12;points=[[0,0.5,0,0,0],[0.5,0,0,0,0],[0.5,1,0,0,0],[1,0.5,0,0,0]];shadow=1;fontFamily=Helvetica;" parent="3s5xODkQfgbdTGdVHeQF-1" vertex="1">
          <mxGeometry x="600" y="160" width="40" height="40" as="geometry" />
        </mxCell>
        <mxCell id="3s5xODkQfgbdTGdVHeQF-7" style="edgeStyle=orthogonalEdgeStyle;shape=connector;rounded=1;jumpStyle=arc;orthogonalLoop=1;jettySize=auto;html=1;exitX=1;exitY=0.5;exitDx=0;exitDy=0;exitPerimeter=0;entryX=0;entryY=0.5;entryDx=0;entryDy=0;entryPerimeter=0;labelBackgroundColor=default;strokeColor=#666666;strokeWidth=1;fontFamily=Helvetica;fontSize=11;fontColor=default;endArrow=classic;fillColor=#f5f5f5;opacity=90;dashed=1;" parent="3s5xODkQfgbdTGdVHeQF-1" source="3s5xODkQfgbdTGdVHeQF-11" target="3s5xODkQfgbdTGdVHeQF-6" edge="1">
          <mxGeometry relative="1" as="geometry" />
        </mxCell>
        <mxCell id="3s5xODkQfgbdTGdVHeQF-8" value=":$ pbp/t2t.bash . ./pbp stmt.ohm stmt.rwr empty.js -" style="rounded=1;whiteSpace=wrap;html=1;sketch=0;container=1;recursiveResize=0;verticalAlign=top;arcSize=6;fontStyle=1;autosize=0;points=[];absoluteArcSize=1;shadow=1;strokeColor=#001DBC;fillColor=#D4E4EF;fontColor=#ffffff;fontFamily=Helvetica;fontSize=11;gradientColor=#0050EF;" parent="3s5xODkQfgbdTGdVHeQF-1" vertex="1">
          <mxGeometry x="160" y="40" width="320" height="130" as="geometry">
            <mxRectangle x="-98" y="-1230" width="99" height="26" as="alternateBounds" />
          </mxGeometry>
        </mxCell>
        <mxCell id="3s5xODkQfgbdTGdVHeQF-9" value="" style="rounded=1;whiteSpace=wrap;html=1;sketch=0;points=[[0,0.5,0,0,0],[1,0.5,0,0,0]];arcSize=50;fontFamily=Helvetica;fontSize=11;fontColor=default;" parent="3s5xODkQfgbdTGdVHeQF-8" vertex="1">
          <mxGeometry x="-10" y="85" width="36" height="25" as="geometry" />
        </mxCell>
        <mxCell id="3s5xODkQfgbdTGdVHeQF-10" value="" style="rounded=1;whiteSpace=wrap;html=1;sketch=0;points=[[0,0.5,0,0,0],[1,0.5,0,0,0]];fillColor=#1ba1e2;fontColor=#ffffff;strokeColor=#006EAF;arcSize=50;fontFamily=Helvetica;fontSize=11;" parent="3s5xODkQfgbdTGdVHeQF-8" vertex="1">
          <mxGeometry x="300" y="50" width="40" height="25" as="geometry" />
        </mxCell>
        <mxCell id="3s5xODkQfgbdTGdVHeQF-11" value="✗" style="rounded=1;whiteSpace=wrap;html=1;sketch=0;points=[[0,0.5,0,0,0],[1,0.5,0,0,0]];fillColor=#1ba1e2;fontColor=#ffffff;strokeColor=#006EAF;arcSize=50;fontFamily=Helvetica;fontSize=11;opacity=30;textOpacity=30;" parent="3s5xODkQfgbdTGdVHeQF-8" vertex="1">
          <mxGeometry x="300" y="85" width="40" height="30" as="geometry" />
        </mxCell>
      </root>
    </mxGraphModel>
  </diagram>
</mxfile>
